<?xml version="1.0" encoding="UTF-8" standalone="no"?>
<!-- Created with Inkscape (http://www.inkscape.org/) -->

<svg
   width="49.484283mm"
   height="49.484146mm"
   viewBox="0 0 49.484283 49.484146"
   version="1.1"
   id="svg5"
   xml:space="preserve"
   xmlns:inkscape="http://www.inkscape.org/namespaces/inkscape"
   xmlns:sodipodi="http://sodipodi.sourceforge.net/DTD/sodipodi-0.dtd"
   xmlns="http://www.w3.org/2000/svg"
   xmlns:svg="http://www.w3.org/2000/svg"><sodipodi:namedview
     id="namedview7"
     pagecolor="#ffffff"
     bordercolor="#000000"
     borderopacity="0.25"
     inkscape:showpageshadow="2"
     inkscape:pageopacity="0.0"
     inkscape:pagecheckerboard="0"
     inkscape:deskcolor="#d1d1d1"
     inkscape:document-units="mm"
     showgrid="false" /><defs
     id="defs2" /><g
     id="g142"
     transform="matrix(0.03527778,0,0,-0.03527778,1.3919289e-4,49.484144)"><g
       id="g8648"><path
         d="M 1203.88,1190.52 1069.67,1026.49 H 695.719 c -183.821,0 -332.844,-149.021 -332.844,-332.849 v -320.93 h 379.906 c 165.899,0 300.389,134.48 300.389,300.379 H 791.395 L 962.172,892.258 H 1268.45 V 693.762 C 1268.45,387.141 1027.6,133.25 730.484,133.25 H 290.063 C 405.613,49.4492 547.699,0 701.352,0 1088.69,0 1402.7,314.012 1402.7,701.352 c 0,190.273 -75.81,362.818 -198.82,489.168"
         style="fill:#25c2a0;fill-opacity:1;fill-rule:nonzero;stroke:none"
         id="path152" /><path
         d="m 134.242,714.266 c 0,306.624 240.86,555.184 537.973,555.184 H 1112.63 C 997.09,1353.25 855.004,1402.7 701.352,1402.7 314.008,1402.7 -0.00390625,1088.7 -0.00390625,701.352 -0.00390625,547.094 49.8398,404.496 134.242,288.699 v 425.567"
         style="fill:#25c2a0;fill-opacity:1;fill-rule:nonzero;stroke:none"
         id="path154" /></g></g></svg>
